<svg xmlns="http://www.w3.org/2000/svg" xml:space="preserve" width="128" height="128" viewBox="528 -35.977 128 128">
    <path d="M638.782 33.32c12.688-31.705-2.815-59.307-37.881-62.97-30.963-3.234-48.186 14.348-50.607 32.513-.256 1.945 0 3.89.917 5.908-4.253 6.642-14.045 16.44-14.888 21.136-.514 2.826 2.824 3.817 4.437 4.807 1.54.514 3.227.147 4.254 1.395.733.917-.257 2.458-.477 3.596-.036 1.872-2.236 2.789-2.017 4.514.22 1.467 1.467 2.055 2.604 2.972 1.21.954-3.08 2.789-1.687 4.477 1.43 1.651 3.52 3.56 2.787 5.908-1.064 3.633-3.117 7.412-1.43 10.238 1.687 2.789 4.034 4.44 7.664 5.174 5.684 0 11.405.11 17.125.11 1.98 1.725 4.474 14.788 4.474 14.788h57.61s-5.317-30.09-4.07-34.677c2.054-7.78 8.691-13.65 11.185-19.889z" style="fill:#fff;fill-opacity:1;stroke:#000;stroke-width:3.04183;stroke-miterlimit:4;stroke-dasharray:none;stroke-opacity:1"/>
    <text xml:space="preserve" x="548.318" y="28.112" style="font-style:normal;font-weight:400;font-size:66.7763px;line-height:1.25;font-family:sans-serif;letter-spacing:0;word-spacing:0;fill:#000;fill-opacity:1;stroke:none;stroke-width:1.25205" transform="scale(1.02213 .97835)"><tspan x="548.318" y="28.112" style="font-style:normal;font-variant:normal;font-weight:400;font-stretch:normal;font-family:sans-serif;-inkscape-font-specification:sans-serif;stroke-width:1.25205">{!}</tspan></text>
</svg>
